{
	"asset":{
		"generator":"Khronos glTF Blender I/O v3.6.27",
		"version":"2.0"
	},
	"scene":0,
	"scenes":[
		{
			"name":"Scene",
			"nodes":[
				0,
				5
			]
		}
	],
	"nodes":[
		{
			"name":"Stroke"
		},
		{
			"name":"Bone",
			"rotation":[
				5.293955920339377e-23,
				8.881784197001252e-16,
				-2.3283067140944524e-10,
				1
			],
			"scale":[
				0.9999999403953552,
				0.9999999403953552,
				1
			],
			"translation":[
				-3.725290076417309e-09,
				1.7462298274040222e-08,
				1.7763568394002505e-15
			]
		},
		{
			"name":"Bone.001",
			"rotation":[
				5.293955920339377e-23,
				8.881784197001252e-16,
				-2.3283067140944524e-10,
				1
			],
			"scale":[
				0.9999999403953552,
				0.9999999403953552,
				1
			],
			"translation":[
				0.004515298176556826,
				1.0332671403884888,
				4.516442686508526e-08
			]
		},
		{
			"name":"Bone.002",
			"rotation":[
				5.293955920339377e-23,
				8.881784197001252e-16,
				-2.3283067140944524e-10,
				1
			],
			"scale":[
				0.9999999403953552,
				0.9999999403953552,
				1
			],
			"translation":[
				0.05359461531043053,
				2.051940441131592,
				1.098764670359742e-07
			]
		},
		{
			"mesh":0,
			"name":"2560px-Fish.svg",
			"skin":0
		},
		{
			"children":[
				4,
				1,
				2,
				3
			],
			"name":"Armature",
			"rotation":[
				0,
				0,
				0.7086500525474548,
				0.7055601477622986
			],
			"scale":[
				0.2503511905670166,
				0.2503511905670166,
				0.2503511905670166
			],
			"translation":[
				0.4906960427761078,
				0.026668250560760498,
				0
			]
		}
	],
	"animations":[
		{
			"channels":[
				{
					"sampler":0,
					"target":{
						"node":1,
						"path":"translation"
					}
				},
				{
					"sampler":1,
					"target":{
						"node":1,
						"path":"rotation"
					}
				},
				{
					"sampler":2,
					"target":{
						"node":1,
						"path":"scale"
					}
				},
				{
					"sampler":3,
					"target":{
						"node":2,
						"path":"translation"
					}
				},
				{
					"sampler":4,
					"target":{
						"node":2,
						"path":"rotation"
					}
				},
				{
					"sampler":5,
					"target":{
						"node":2,
						"path":"scale"
					}
				},
				{
					"sampler":6,
					"target":{
						"node":3,
						"path":"translation"
					}
				},
				{
					"sampler":7,
					"target":{
						"node":3,
						"path":"rotation"
					}
				},
				{
					"sampler":8,
					"target":{
						"node":3,
						"path":"scale"
					}
				},
				{
					"sampler":9,
					"target":{
						"node":5,
						"path":"translation"
					}
				},
				{
					"sampler":10,
					"target":{
						"node":5,
						"path":"rotation"
					}
				},
				{
					"sampler":11,
					"target":{
						"node":5,
						"path":"scale"
					}
				}
			],
			"name":"swim",
			"samplers":[
				{
					"input":8,
					"interpolation":"STEP",
					"output":9
				},
				{
					"input":8,
					"interpolation":"STEP",
					"output":10
				},
				{
					"input":8,
					"interpolation":"STEP",
					"output":11
				},
				{
					"input":8,
					"interpolation":"STEP",
					"output":12
				},
				{
					"input":13,
					"interpolation":"LINEAR",
					"output":14
				},
				{
					"input":8,
					"interpolation":"STEP",
					"output":15
				},
				{
					"input":8,
					"interpolation":"STEP",
					"output":16
				},
				{
					"input":8,
					"interpolation":"STEP",
					"output":17
				},
				{
					"input":8,
					"interpolation":"STEP",
					"output":18
				},
				{
					"input":8,
					"interpolation":"STEP",
					"output":19
				},
				{
					"input":8,
					"interpolation":"STEP",
					"output":20
				},
				{
					"input":8,
					"interpolation":"STEP",
					"output":21
				}
			]
		}
	],
	"materials":[
		{
			"alphaMode":"BLEND",
			"doubleSided":true,
			"name":"2560px-Fish.svg",
			"pbrMetallicRoughness":{
				"baseColorTexture":{
					"index":0
				},
				"metallicFactor":0,
				"roughnessFactor":0.5
			}
		}
	],
	"meshes":[
		{
			"name":"2560px-Fish.svg",
			"primitives":[
				{
					"attributes":{
						"POSITION":0,
						"NORMAL":1,
						"TEXCOORD_0":2,
						"TANGENT":3,
						"JOINTS_0":4,
						"WEIGHTS_0":5
					},
					"indices":6,
					"material":0
				}
			]
		}
	],
	"textures":[
		{
			"sampler":0,
			"source":0
		}
	],
	"images":[
		{
			"mimeType":"image/png",
			"name":"2560px-Fish.svg",
			"uri":"2560px-Fish_svg.png"
		}
	],
	"skins":[
		{
			"inverseBindMatrices":7,
			"joints":[
				1,
				2,
				3
			],
			"name":"Armature"
		}
	],
	"accessors":[
		{
			"bufferView":0,
			"componentType":5126,
			"count":4,
			"max":[
				0.6837606430053711,
				0.4999999403953552,
				3.774895063202166e-08
			],
			"min":[
				-0.6837605834007263,
				-0.4999999403953552,
				-3.774894707930798e-08
			],
			"type":"VEC3"
		},
		{
			"bufferView":1,
			"componentType":5126,
			"count":4,
			"type":"VEC3"
		},
		{
			"bufferView":2,
			"componentType":5126,
			"count":4,
			"type":"VEC2"
		},
		{
			"bufferView":3,
			"componentType":5126,
			"count":4,
			"type":"VEC4"
		},
		{
			"bufferView":4,
			"componentType":5121,
			"count":4,
			"type":"VEC4"
		},
		{
			"bufferView":5,
			"componentType":5126,
			"count":4,
			"type":"VEC4"
		},
		{
			"bufferView":6,
			"componentType":5123,
			"count":6,
			"type":"SCALAR"
		},
		{
			"bufferView":7,
			"componentType":5126,
			"count":3,
			"type":"MAT4"
		},
		{
			"bufferView":8,
			"componentType":5126,
			"count":2,
			"max":[
				3.3333333333333335
			],
			"min":[
				0.041666666666666664
			],
			"type":"SCALAR"
		},
		{
			"bufferView":9,
			"componentType":5126,
			"count":2,
			"type":"VEC3"
		},
		{
			"bufferView":10,
			"componentType":5126,
			"count":2,
			"type":"VEC4"
		},
		{
			"bufferView":11,
			"componentType":5126,
			"count":2,
			"type":"VEC3"
		},
		{
			"bufferView":12,
			"componentType":5126,
			"count":2,
			"type":"VEC3"
		},
		{
			"bufferView":13,
			"componentType":5126,
			"count":80,
			"max":[
				3.3333333333333335
			],
			"min":[
				0.041666666666666664
			],
			"type":"SCALAR"
		},
		{
			"bufferView":14,
			"componentType":5126,
			"count":80,
			"type":"VEC4"
		},
		{
			"bufferView":15,
			"componentType":5126,
			"count":2,
			"type":"VEC3"
		},
		{
			"bufferView":16,
			"componentType":5126,
			"count":2,
			"type":"VEC3"
		},
		{
			"bufferView":17,
			"componentType":5126,
			"count":2,
			"type":"VEC4"
		},
		{
			"bufferView":18,
			"componentType":5126,
			"count":2,
			"type":"VEC3"
		},
		{
			"bufferView":19,
			"componentType":5126,
			"count":2,
			"type":"VEC3"
		},
		{
			"bufferView":20,
			"componentType":5126,
			"count":2,
			"type":"VEC4"
		},
		{
			"bufferView":21,
			"componentType":5126,
			"count":2,
			"type":"VEC3"
		}
	],
	"bufferViews":[
		{
			"buffer":0,
			"byteLength":48,
			"byteOffset":0,
			"target":34962
		},
		{
			"buffer":0,
			"byteLength":48,
			"byteOffset":48,
			"target":34962
		},
		{
			"buffer":0,
			"byteLength":32,
			"byteOffset":96,
			"target":34962
		},
		{
			"buffer":0,
			"byteLength":64,
			"byteOffset":128,
			"target":34962
		},
		{
			"buffer":0,
			"byteLength":16,
			"byteOffset":192,
			"target":34962
		},
		{
			"buffer":0,
			"byteLength":64,
			"byteOffset":208,
			"target":34962
		},
		{
			"buffer":0,
			"byteLength":12,
			"byteOffset":272,
			"target":34963
		},
		{
			"buffer":0,
			"byteLength":192,
			"byteOffset":284
		},
		{
			"buffer":0,
			"byteLength":8,
			"byteOffset":476
		},
		{
			"buffer":0,
			"byteLength":24,
			"byteOffset":484
		},
		{
			"buffer":0,
			"byteLength":32,
			"byteOffset":508
		},
		{
			"buffer":0,
			"byteLength":24,
			"byteOffset":540
		},
		{
			"buffer":0,
			"byteLength":24,
			"byteOffset":564
		},
		{
			"buffer":0,
			"byteLength":320,
			"byteOffset":588
		},
		{
			"buffer":0,
			"byteLength":1280,
			"byteOffset":908
		},
		{
			"buffer":0,
			"byteLength":24,
			"byteOffset":2188
		},
		{
			"buffer":0,
			"byteLength":24,
			"byteOffset":2212
		},
		{
			"buffer":0,
			"byteLength":32,
			"byteOffset":2236
		},
		{
			"buffer":0,
			"byteLength":24,
			"byteOffset":2268
		},
		{
			"buffer":0,
			"byteLength":24,
			"byteOffset":2292
		},
		{
			"buffer":0,
			"byteLength":32,
			"byteOffset":2316
		},
		{
			"buffer":0,
			"byteLength":24,
			"byteOffset":2348
		}
	],
	"samplers":[
		{
			"magFilter":9729,
			"minFilter":9987,
			"wrapS":33071,
			"wrapT":33071
		}
	],
	"buffers":[
		{
			"byteLength":2372,
			"uri":"fish.bin"
		}
	]
}
